<?xml version="1.0" encoding="UTF-8"?>
<svg viewBox="0 0 614 122" version="1.1" xmlns="http://www.w3.org/2000/svg" xmlns:xlink="http://www.w3.org/1999/xlink">
    <g id="Page-1" stroke="none" stroke-width="1" fill="none" fill-rule="evenodd">
        <g id="breaking-bad-seeklogo.com-2" transform="translate(0.900000, 0.800000)" fill="#FFFFFF" fill-rule="nonzero">
            <g id="Cube">
                <path d="M2.13162821e-14,120.7 L120.7,120.7 L120.7,-1.0658141e-14 L2.13162821e-14,-1.0658141e-14 L2.13162821e-14,120.7 Z M105.9,18.3 C104.9,18.3 104.3,18.7 104,19.6 L101.7,19.4 L102.7,12 L110.3,12 L110,14.3 L104.8,14.3 L104.4,17.1 C105.1,16.5 105.9,16.1 106.8,16.1 C109.7,16.1 111.1,18.2 111.1,20.7 C111.1,23.8 108.9,25.6 106.1,25.6 C103.6,25.6 101.5,24.3 101.4,21.6 L104.2,21.4 C104.2,22.5 105,23.5 106.2,23.5 C107.8,23.5 108.4,22.1 108.4,20.7 C108.2,19 107.3,18.3 105.9,18.3 Z M95.1,19.4 L94.1,19.4 L94.1,17.3 L95.1,17.3 C96.1,17.3 96.9,16.8 96.9,15.8 C96.9,14.7 96.2,14 95.1,14 C93.7,14 93.3,15.2 93.2,16.3 L90.6,15.7 C91,13.1 92.7,11.7 95.4,11.7 C97.6,11.7 99.7,12.9 99.7,15.3 C99.7,16.9 98.9,17.8 97.5,18.1 L97.5,18.1 C99.2,18.5 100,19.7 100.1,21.4 C100.1,24.2 97.8,25.6 95.2,25.6 C92.6,25.6 90.5,24.4 90.5,20.9 L93,20.9 C93,22.4 93.7,23.3 95.2,23.3 C96.5,23.3 97.2,22.4 97.2,21.2 C97.1,19.9 96.1,19.4 95.1,19.4 Z M80.5,47.2 L91.8,47.2 L91.8,53.7 L92,53.7 C94.7,48.3 99.9,46.1 106.5,46.1 L106.5,57.6 C98.8,57.6 91.8,61.2 91.8,71.4 L91.8,94.2 L80.5,94.2 L80.5,47.2 L80.5,47.2 Z M19,28.1 L50.1,28.1 C61,28.1 69.7,33.6 69.7,44.5 C69.7,51.7 65.7,56.5 58.5,57.9 L58.5,58.1 C67.6,59 72.7,66.6 72.7,74.5 C72.7,91 60.9,94.3 47.2,94.3 L19,94.3 L19,28.1 Z M541.7,22.7 C543,22.7 543.7,21.9 543.7,20.5 C543.7,19.1 543,18.3 541.7,18.3 C540.4,18.3 539.7,19.1 539.7,20.5 C539.7,21.8 540.4,22.7 541.7,22.7 Z M59.7,74.1 C59.7,66.7 55.1,64 47.5,64 L31.4,64 L31.4,83.3 L47.6,83.3 C55.1,83.3 59.7,80.9 59.7,74.1 Z M56.7,46.2 C56.7,41.2 53.4,37.9 46.2,37.9 L31.4,37.9 L31.4,54.6 L46.2,54.6 C51.7,54.6 56.7,52.5 56.7,46.2 Z M483.2,46.2 C483.2,41.2 479.9,37.9 472.7,37.9 L457.9,37.9 L457.9,54.6 L472.7,54.6 C478.2,54.6 483.2,52.5 483.2,46.2 Z M523.3,73.7 C519,74.5 515.5,75.7 515.5,80.2 C515.5,83.7 518.7,86.1 522.8,86.1 C528.1,86.1 534.9,83.5 534.9,77.5 L534.9,70.8 C533.4,71.5 531.6,72.1 529.5,72.5 L523.3,73.7 Z M474,63.9 L457.9,63.9 L457.9,83.2 L474.1,83.2 C481.6,83.2 486.2,80.9 486.2,74 C486.2,66.6 481.5,63.9 474,63.9 Z M435.7,-1.0658141e-14 L435.7,120.7 L556.4,120.7 L556.4,-1.0658141e-14 L435.7,-1.0658141e-14 Z M541.9,10.9 C544.2,10.9 545.7,12.1 546.1,14.3 L543.5,14.6 C543.4,13.6 542.8,13 541.9,13 C540,13 539.5,15.5 539.5,17.1 L539.5,17.1 C539.8,16.6 540.6,15.8 542.1,15.8 C544.6,15.8 546.1,17.6 546.1,20.3 C546.1,22.8 544.3,24.8 541.6,24.8 C537.7,24.8 536.8,21.3 536.8,18.1 C536.8,14 538.5,10.9 541.9,10.9 Z M530.2,17.5 C529.2,17.5 528.7,17.9 528.3,18.8 L526,18.6 L527,11.2 L534.6,11.2 L534.3,13.5 L529.1,13.5 L528.7,16.3 C529.4,15.7 530.2,15.3 531.1,15.3 C534,15.3 535.4,17.4 535.4,19.9 C535.4,23 533.2,24.8 530.4,24.8 C527.9,24.8 525.8,23.5 525.7,20.8 L528.5,20.6 C528.5,21.7 529.3,22.7 530.5,22.7 C532.1,22.7 532.7,21.3 532.7,19.9 C532.5,18.2 531.6,17.5 530.2,17.5 Z M473.6,94.2 L445.4,94.2 L445.4,28.1 L476.5,28.1 C487.4,28.1 496.1,33.6 496.1,44.5 C496.1,51.7 492.1,56.5 484.9,57.9 L484.9,58.1 C494,59 499.1,66.6 499.1,74.5 C499.2,91 487.4,94.2 473.6,94.2 Z M536,94.2 C535.3,93.1 534.9,91.1 534.9,89.9 C530.5,93.4 525.4,95.3 519.6,95.3 C510.7,95.3 503.6,89.6 503.6,80.5 C503.6,71.3 510.9,67.2 517.9,65.8 L522.6,64.9 C526.7,64.1 532,63.1 534.9,62.1 L534.9,60.7 C534.9,56.1 530.9,54.8 526,54.8 C519.4,54.8 517.3,56.8 517.3,61.9 L506,61.4 C506,50.3 515.8,46.1 526.1,46.1 C536.2,46.1 546.4,48.1 546.4,61.5 L546.4,86.3 C546.4,91.1 547.5,93.2 548.2,94.2 L536,94.2 Z" id="Shape"></path>
            </g>
            <g id="Text" transform="translate(125.000000, 27.700000)">
                <g id="Ebene_10" transform="translate(436.000000, 0.400000)">
                    <path d="M34.6,61.2 C34.6,60.4 34.4,60 34.2,60 C33.9,60 32.8,61 30.7,62.6 C27.1,65.3 23.6,66.6 19.7,66.6 C8.3,66.6 -1.13686838e-13,57.7 -1.13686838e-13,44 C-1.13686838e-13,28.8 9.4,18.3 22.6,18.3 C29,18.3 33,21.1 33.7,21.1 C34.2,21.1 34.3,20.3 34.3,18.8 L34.3,15.5 C34.3,11.3 33.8,9.9 31.4,9.1 C29.2,8.4 27.3,8.4 27.3,6.3 C27.3,4.3 29.2,3.4 33.1,2 C37.1,0.5 40.3,-7.10542736e-15 42.6,-7.10542736e-15 C44.7,-7.10542736e-15 45.5,1.1 45.5,3.9 C45.5,5.5 45,13.6 45,32.9 C45,48.6 45.1,56.6 46.4,57.5 C48.4,59 52.1,58 52.1,60.8 C52.1,63 49.6,63.7 44.9,65.3 C41.7,66.4 38.4,66.8 37.2,66.8 C35.5,66.8 34.7,65.9 34.7,63.8 L34.7,61.2 L34.6,61.2 Z M34.2,34.8 C34.2,32.2 34.2,30.5 33.3,29.3 C31.4,26.7 27.4,24.6 23.4,24.6 C16.7,24.6 12,30.4 12,40.5 C12,51.4 17.3,58.2 24,58.2 C30.5,58.2 34.2,54.6 34.2,47.6 L34.2,34.8 L34.2,34.8 Z" id="Shape"></path>
                </g>
                <g id="Ebene_8" transform="translate(0.000000, 0.000000)">
                    <path d="M15.6,42.2 C12.4,42.2 12,42.3 12,44.8 C12,52.2 18.1,59 26.3,59 C29.7,59 32.8,58 35.8,55.9 C37.9,54.4 39.3,52.7 41.1,52.7 C42.5,52.7 43.5,53.7 43.5,55 C43.5,56.4 42,58.7 39.2,61 C34.2,65.1 29.5,67.2 23.2,67.2 C9.9,67.2 0,56.9 0,43.6 C0,29 10.1,18.6 24.3,18.6 C36.3,18.6 43.8,25.9 43.8,37.6 C43.8,41.9 42.7,42.3 38.6,42.3 L16.2,42.3 C15.9,42.2 15.8,42.2 15.6,42.2 Z M30.4,36.8 C32.6,36.8 33.3,36.5 33.3,35.1 C33.3,29.3 29,24.5 22.7,24.5 C16.6,24.5 12.4,29.4 12.4,35.1 C12.4,36.6 13,36.8 15.2,36.8 L30.4,36.8 Z" id="Shape"></path>
                    <path d="M89.4,58.6 C92.2,59.4 93.8,59.4 93.8,61.3 C93.8,64.1 89.3,67.2 83.3,67.2 C79.8,67.2 77.4,62.3 76.5,62.3 C75,62.3 71,67.2 62.8,67.2 C53.7,67.2 47.6,61.4 47.6,52.9 C47.6,43.1 54.9,37 68.1,37 C70.5,37 73.4,37.3 76.8,37.8 L76.8,32.9 C76.8,27.4 74.3,24.4 69.9,24.4 C66.8,24.4 64.2,25.8 61.8,28.5 C59.9,30.7 58.7,33.3 54.8,33.3 C52.3,33.3 50.8,31.6 50.8,28.9 C50.8,23.6 57.9,18.5 70.1,18.5 C77.2,18.5 82.1,20.4 84.8,23.8 C87.2,26.8 87.4,31.4 87.4,38 L87.4,53 C87.5,56.3 88,58.2 89.4,58.6 Z M70.1,43 C63.3,43 59.5,46.2 59.5,51.4 C59.5,56.3 62.9,59.6 68.5,59.6 C74.8,59.6 76.9,56.9 76.9,50.7 L76.9,43.8 C74.4,43.3 72.1,43 70.1,43 Z" id="Shape"></path>
                    <path d="M112.3,34.6 C112.3,36.5 112.4,37.4 113.2,37.4 C113.7,37.4 115.6,36.2 118.5,33.6 C122.3,30.1 124.4,28 124.4,26.9 C124.4,25.7 120.9,25.8 120.9,23.2 C120.9,20.1 124.7,19.4 132.5,19.4 C138.2,19.4 141,20.5 141,22.9 C141,26.5 136.6,25.4 132.7,27.7 C130.9,28.8 128.8,30.9 126.3,33.5 C125,34.8 124.3,35.6 124.3,36.2 C124.3,37.1 125.9,39.2 128.9,43.1 C135.4,51.5 139.8,56.4 142,58 C145.1,60.2 149.1,59.5 149.1,62.6 C149.1,65.3 146.2,66.4 139.8,66.4 C137.1,66.4 135.4,66.1 134.8,65.9 C132.2,65 130.1,61.7 126.4,56.9 C118.3,46.6 114.1,41.2 113.2,41.2 C112.4,41.2 112.3,41.9 112.3,43.7 C112.3,44.2 112.3,44.9 112.3,45.7 C112.3,53.4 112.5,57.8 113.6,59.1 C114.9,60.6 118.4,60.1 118.4,63 C118.4,65.7 115,66.3 107.7,66.3 C99.5,66.3 96.1,65.8 96.1,62.7 C96.1,60.6 98,60.6 99.6,59.8 C101.5,58.7 101.9,55.4 101.9,49.2 C101.9,45.7 101.8,41.5 101.8,36.2 C101.8,34.2 101.8,32.3 101.8,30.4 C101.8,16.7 101.7,11.5 100.5,10.1 C99.8,9.3 98.2,9.1 96.3,8.4 C94.8,7.9 94.2,7.6 94.2,6.2 C94.2,4.3 95.9,3.5 99.3,2.4 C104.6,0.6 108.7,7.10542736e-15 110.4,7.10542736e-15 C112.4,7.10542736e-15 113,1.2 113,3.9 C113,8.8 112.5,13.6 112.5,22.8 L112.5,34.6 L112.3,34.6 Z" id="Path"></path>
                    <path d="M167.8,51 C167.8,56 168.1,58.8 169.6,59.6 C171.7,60.8 173.7,60.5 173.7,63 C173.7,65.7 170.4,66.3 163.1,66.3 C154.9,66.3 151.4,65.8 151.4,62.7 C151.4,60.6 153.3,60.6 154.9,59.8 C156.7,58.8 157.1,56.5 157.1,52.5 C157.1,50.6 157,48.4 157,45.6 C157,43.9 157,42.2 157,40.7 C157,33.2 156.9,29.2 155.3,28.4 C153,27.2 150.3,27.4 150.3,25.1 C150.3,23.6 151.6,22.6 154.1,21.6 C160.4,19.1 165.2,18.5 166.1,18.5 C167.9,18.5 168.5,19.8 168.5,22.4 C168.5,23.6 168.5,25.2 168.4,27.3 L168,39.2 C167.9,43.3 167.8,47.2 167.8,51 Z M161.8,1.4 C166,1.4 168.9,4.1 168.9,7.4 C168.9,10.7 165.8,13.5 161.3,13.5 C157.2,13.5 154.3,11 154.3,7.8 C154.2,4.5 157.5,1.4 161.8,1.4 Z" id="Shape"></path>
                    <path d="M208,18.5 C212.8,18.5 217.1,20.8 219.7,23.9 C223.4,28.3 223.6,33.7 223.6,41 C223.6,44.5 223.6,46.6 223.6,47.3 C223.6,49.5 223.5,51.3 223.5,53 C223.5,56.7 223.8,58.7 225.6,59.7 C227.2,60.5 229.1,60.5 229.1,62.6 C229.1,65.7 225.6,66.1 217.6,66.1 C210.1,66.1 206.6,65.6 206.6,62.9 C206.6,60.4 208.6,60.7 210.7,59.5 C212.3,58.6 212.6,55.5 212.6,49.8 C212.6,35 212.4,27.4 203.9,27.4 C200.6,27.4 197.3,29.5 195.6,32.9 C193.9,36.4 193.8,42.5 193.8,51.4 C193.8,56 193.9,58.6 195.5,59.5 C197.6,60.7 199.6,60.4 199.6,62.9 C199.6,65.6 196.3,66.2 189,66.2 C180.8,66.2 177.3,65.7 177.3,62.6 C177.3,60.5 179.2,60.5 180.8,59.7 C182.6,58.7 183,56.4 183,52.4 C183,50.5 182.9,48.3 182.9,45.5 C182.9,43.8 182.9,42.1 182.9,40.6 C182.9,33.1 182.8,29.1 181.2,28.3 C178.9,27.1 176.2,27.3 176.2,25 C176.2,23.5 177.5,22.5 180,21.5 C186,19.2 190.4,18.6 191.6,18.6 C193.3,18.6 194.1,19.4 194.1,21.5 L194.1,24.1 C194.1,24.4 194.1,24.6 194.1,24.6 C194.1,25 194.1,25.2 194.5,25.2 C194.7,25.2 194.9,25.1 195,25 L196.1,24 C198.8,21.6 201.3,18.5 208,18.5 Z" id="Path"></path>
                    <path d="M232.8,36.2 C232.8,26.1 241.2,18.5 253.1,18.5 C256.3,18.5 260.3,19.2 265.2,20.3 C267.7,20.3 270.3,19 273.9,16.5 C275.2,17.3 275.9,18.4 275.9,19.5 C275.9,22.1 274,24.6 270.2,26.6 C271.5,29.1 272.1,31.5 272.1,34.2 C272.1,44.3 264,51.6 251.6,51.6 C248.2,51.6 245.1,51.1 242.2,50.1 C240.9,51.5 240.3,52.7 240.3,53.8 C240.3,56.8 243.3,58.1 249.4,58.1 C254.1,58.1 258.8,57.1 263.8,57.1 C272.5,57.1 277.2,60.8 277.2,67.3 C277.2,76.8 266.9,84.6 251.3,84.6 C238.6,84.6 230.6,78.5 230.6,72.2 C230.6,68.8 232.8,66.5 237.2,63.9 C233.5,62.6 231.5,60.1 231.5,57 C231.5,53.8 233.8,50.8 238.3,48 C234.6,45 232.8,41 232.8,36.2 Z M240.6,71.4 C240.6,75.5 245.1,78.6 253,78.6 C261.8,78.6 267.5,74.7 267.5,70.3 C267.5,67.4 265.4,65.6 261.4,65.6 C258.6,65.6 254.3,66.5 248.9,66.5 C247.1,66.5 245.1,66.4 243,66.1 C241.4,67.7 240.6,69.4 240.6,71.4 Z M252.2,45.6 C257.4,45.6 261.4,41.4 261.4,35.1 C261.4,28.6 257.5,24.4 252.3,24.4 C247.5,24.4 243.7,28.7 243.7,35 C243.7,41.5 247.2,45.6 252.2,45.6 Z" id="Shape"></path>
                </g>
            </g>
        </g>
    </g>
</svg>