<?xml version="1.0" encoding="UTF-8"?>
<svg viewBox="0 0 400 498" version="1.1" xmlns="http://www.w3.org/2000/svg" xmlns:xlink="http://www.w3.org/1999/xlink">
    <title>Group 3</title>
    <defs>
        <polygon id="path-1" points="-3.10862447e-15 0 399.674907 0 399.674907 497.218774 -3.10862447e-15 497.218774"></polygon>
    </defs>
    <g id="Page-1" stroke="none" stroke-width="1" fill="none" fill-rule="evenodd">
        <g id="Group-3">
            <mask id="mask-2" fill="white">
                <use xlink:href="#path-1"></use>
            </mask>
            <g id="Clip-2"></g>
            <path d="M239.426807,318.769774 L239.594807,318.980774 C239.594807,318.980774 239.481807,318.718774 239.481807,318.717774 C239.482807,318.717774 239.426807,318.769774 239.426807,318.769774 L239.426807,318.769774 Z M261.562807,322.593774 C261.252807,322.555774 260.943807,322.516774 260.634807,322.476774 C260.864807,322.611774 261.093807,322.746774 261.323807,322.881774 C261.323807,322.881774 261.563807,322.591774 261.562807,322.593774 L261.562807,322.593774 Z M144.872807,330.192774 C145.454807,329.449774 147.125807,329.455774 146.468807,327.861774 C145.753807,328.432774 145.038807,329.004774 144.323807,329.576774 C144.504807,329.785774 144.688807,329.991774 144.872807,330.192774 L144.872807,330.192774 Z M146.574807,420.798774 C147.142807,420.425774 147.463807,420.006774 146.828807,419.413774 C146.608807,419.772774 146.388807,420.131774 146.168807,420.490774 C146.304807,420.592774 146.440807,420.695774 146.574807,420.798774 L146.574807,420.798774 Z M101.205807,265.145774 L100.851807,265.113774 L100.997807,265.470774 L101.205807,265.145774 Z M105.582807,279.912774 C105.495807,279.890774 105.356807,280.068774 105.241807,280.155774 C105.407807,280.321774 105.566807,280.609774 105.742807,280.621774 C105.935807,280.634774 106.146807,280.392774 106.363807,280.252774 C106.087807,280.125774 105.845807,279.980774 105.582807,279.912774 L105.582807,279.912774 Z M145.124807,293.362774 C134.456807,291.524774 123.799807,288.988774 113.039807,292.491774 C123.746807,292.097774 134.416807,293.826774 145.124807,293.362774 L145.124807,293.362774 Z M120.479807,281.230774 C131.911807,284.484774 142.762807,284.019774 153.696807,282.435774 C147.668807,281.957774 141.640807,281.480774 135.610807,281.002774 C133.598807,280.827774 131.588807,280.652774 129.579807,280.477774 C126.838807,281.047774 123.974807,279.839774 120.479807,281.230774 L120.479807,281.230774 Z M135.610807,281.002774 C145.676807,280.612774 155.818807,280.729774 165.302807,276.486774 C149.012807,278.456774 132.716807,278.734774 115.113807,276.853774 C120.393807,279.970774 125.231807,279.209774 129.579807,280.477774 C131.588807,280.652774 133.598807,280.827774 135.610807,281.002774 L135.610807,281.002774 Z M141.530807,295.981774 C129.127807,295.516774 116.610807,292.737774 104.501807,297.926774 C116.963807,299.210774 129.304807,298.541774 141.530807,295.981774 L141.530807,295.981774 Z M157.413807,274.842774 C143.441807,273.831774 129.469807,272.820774 115.497807,271.808774 C129.135807,277.721774 143.201807,277.349774 157.413807,274.842774 L157.413807,274.842774 Z M165.526807,283.775774 C145.972807,288.032774 126.932807,284.610774 106.612807,280.260774 C121.188807,290.675774 159.864807,293.514774 165.526807,283.775774 L165.526807,283.775774 Z M144.069807,268.610774 C149.796807,267.947774 155.515807,267.187774 161.256807,266.677774 C163.219807,266.503774 163.322807,265.857774 162.850807,264.224774 C161.690807,260.214774 156.383807,255.951774 152.237807,255.576774 C150.168807,255.389774 150.126807,256.362774 150.210807,257.882774 C150.456807,262.351774 148.150807,265.350774 144.487807,267.521774 C141.833807,267.657774 139.178807,267.792774 136.524807,267.927774 C131.567807,266.376774 128.047807,263.341774 126.797807,258.154774 C125.550807,252.980774 124.991807,252.625774 120.112807,254.951774 C118.471807,255.734774 117.006807,256.877774 115.412807,257.770774 C111.865807,259.758774 112.817807,261.635774 115.430807,263.622774 C121.026807,267.877774 127.490807,268.985774 134.234807,268.948774 L144.069807,268.610774 Z M167.198807,270.286774 C160.174807,268.566774 153.880807,270.789774 147.470807,271.325774 C138.839807,272.048774 130.200807,272.819774 121.778807,269.956774 C119.748807,269.266774 117.524807,268.593774 115.936807,267.260774 C111.986807,263.943774 107.990807,261.914774 102.644807,264.618774 C110.755807,257.714774 117.882807,249.346774 129.662807,250.079774 C136.948807,250.532774 144.256807,251.320774 151.436807,252.614774 C161.570807,254.441774 165.679807,259.260774 167.198807,270.286774 L167.198807,270.286774 Z M298.716807,265.324774 L299.037807,265.347774 L298.898807,265.029774 L298.716807,265.324774 Z M288.634807,292.264774 C278.150807,289.366774 267.834807,291.772774 257.572807,293.440774 C267.997807,293.596774 278.287807,292.288774 288.634807,292.264774 L288.634807,292.264774 Z M242.775807,294.028774 C241.840807,293.760774 240.623807,293.454774 240.170807,294.619774 C239.733807,295.746774 240.623807,296.343774 241.656807,296.768774 C249.047807,299.809774 256.656807,301.934774 264.706807,302.160774 C257.694807,298.461774 250.258807,296.175774 242.775807,294.028774 L242.775807,294.028774 Z M248.652807,282.644774 C250.477807,284.019774 252.163807,283.565774 253.728807,283.703774 C261.790807,284.413774 269.810807,283.273774 277.857807,283.091774 C280.894807,282.288774 284.226807,282.683774 286.984807,280.795774 C282.224807,278.758774 277.275807,281.972774 272.502807,280.273774 C269.608807,280.526774 266.713807,280.778774 263.819807,281.030774 C259.035807,282.661774 253.829807,280.938774 248.652807,282.644774 L248.652807,282.644774 Z M245.497807,275.322774 C258.073807,276.955774 270.611807,277.886774 282.812807,273.312774 C270.275807,272.887774 257.863807,273.713774 245.497807,275.322774 L245.497807,275.322774 Z M258.843807,295.962774 C270.836807,298.723774 282.982807,299.077774 295.192807,298.122774 C283.309807,292.749774 271.024807,295.368774 258.843807,295.962774 L258.843807,295.962774 Z M272.502807,280.273774 C275.844807,279.114774 279.685807,279.731774 284.088807,276.913774 C266.830807,278.716774 250.993807,278.411774 235.138807,276.764774 C244.349807,280.535774 254.092807,280.731774 263.819807,281.030774 C266.713807,280.778774 269.608807,280.526774 272.502807,280.273774 L272.502807,280.273774 Z M277.857807,283.091774 C263.296807,286.153774 248.682807,286.764774 233.662807,283.789774 C242.787807,293.120774 283.558807,291.004774 291.793807,281.173774 C290.285807,280.024774 288.559807,281.516774 286.984807,280.795774 C284.226807,282.683774 280.894807,282.288774 277.857807,283.091774 L277.857807,283.091774 Z M255.655807,268.881774 C251.373807,264.690774 248.691807,261.391774 249.487807,256.577774 C249.680807,255.411774 248.652807,255.525774 247.774807,255.535774 C243.577807,255.581774 237.438807,260.543774 236.731807,264.494774 C236.541807,265.554774 236.400807,266.623774 237.890807,266.582774 C243.370807,266.431774 248.593807,268.468774 255.655807,268.881774 L255.655807,268.881774 Z M261.774807,268.639774 C267.979807,269.314774 272.790807,268.828774 277.437807,267.209774 C281.198807,265.899774 285.059807,264.372774 286.724807,260.376774 C287.302807,258.988774 278.987807,254.037774 275.655807,253.620774 C275.491807,253.599774 275.327807,253.569774 275.167807,253.531774 C273.672807,253.174774 273.043807,253.721774 273.065807,255.293774 C273.163807,262.252774 268.821807,265.878774 261.774807,268.639774 L261.774807,268.639774 Z M297.196807,264.546774 C291.780807,261.967774 288.108807,264.267774 283.816807,267.121774 C274.365807,273.406774 263.471807,272.203774 252.826807,271.411774 C246.722807,270.957774 240.757807,268.844774 234.522807,269.923774 C231.775807,270.399774 232.474807,268.538774 232.781807,267.134774 C234.427807,259.617774 238.835807,254.573774 246.438807,252.904774 C254.571807,251.119774 262.876807,250.436774 271.181807,250.092774 C274.495807,249.955774 277.784807,250.709774 280.869807,252.123774 C287.140807,254.998774 291.605807,260.274774 297.196807,264.546774 L297.196807,264.546774 Z M322.192807,202.967774 L322.456807,202.909774 C322.456807,202.909774 322.285807,202.883774 322.279807,202.891774 C322.273807,202.899774 322.192807,202.967774 322.192807,202.967774 L322.192807,202.967774 Z M153.128807,229.634774 C153.419807,229.681774 153.733807,229.589774 154.036807,229.556774 C153.981807,229.378774 153.929807,229.048774 153.871807,229.047774 C153.427807,229.039774 152.983807,229.096774 152.382807,229.145774 C152.727807,229.381774 152.913807,229.598774 153.128807,229.634774 L153.128807,229.634774 Z M123.312807,188.720774 C127.252807,189.335774 131.192807,189.949774 135.133807,190.563774 C131.469807,188.177774 127.540807,187.491774 123.312807,188.720774 L123.312807,188.720774 Z M199.921807,230.058774 C198.467807,235.545774 196.234807,239.384774 192.567807,242.548774 C197.333807,240.744774 201.983807,243.435774 207.406807,242.108774 C203.021807,239.113774 201.197807,235.312774 199.921807,230.058774 L199.921807,230.058774 Z M219.880807,209.858774 C219.628807,215.410774 221.219807,217.479774 226.005807,217.636774 C231.025807,217.802774 235.851807,216.715774 240.378807,214.375774 C232.995807,215.315774 226.122807,214.382774 219.880807,209.858774 L219.880807,209.858774 Z M179.891807,209.313774 C173.732807,214.779774 166.416807,214.983774 157.281807,213.844774 C173.655807,220.724774 181.920807,217.682774 179.891807,209.313774 L179.891807,209.313774 Z M86.0298068,201.624774 C81.5808068,203.204774 79.4798068,206.744774 78.3588068,212.265774 C90.5508068,200.084774 104.529807,204.284774 118.089807,205.033774 C107.694807,200.983774 97.2448068,197.641774 86.0298068,201.624774 L86.0298068,201.624774 Z M306.212807,199.891774 C293.804807,199.486774 282.399807,203.493774 271.133807,208.053774 C276.018807,207.310774 280.801807,206.011774 285.670807,205.283774 C298.010807,203.438774 310.507807,201.158774 320.990807,211.910774 C319.544807,204.290774 314.319807,200.156774 306.212807,199.891774 L306.212807,199.891774 Z M119.717807,195.553774 C111.610807,193.023774 103.484807,190.526774 94.8608068,190.760774 C86.7728068,190.981774 80.9968068,194.494774 78.2028068,200.827774 C78.9528068,200.707774 79.7168068,200.802774 80.1938068,200.476774 C87.7608068,195.314774 96.0478068,195.212774 104.663807,196.699774 C113.707807,198.261774 122.377807,201.222774 131.240807,203.451774 C139.112807,205.431774 146.969807,207.738774 155.142807,206.388774 C142.859807,203.927774 131.445807,199.213774 119.717807,195.553774 L119.717807,195.553774 Z M322.192807,202.967774 C322.976807,201.027774 321.569807,199.805774 320.613807,198.531774 C314.728807,190.680774 306.464807,189.909774 297.702807,191.203774 C279.338807,193.915774 262.747807,202.812774 244.618807,206.480774 C248.316807,207.075774 251.925807,206.922774 255.555807,206.321774 C267.720807,204.306774 279.287807,199.928774 291.313807,197.380774 C302.368807,195.038774 313.158807,194.303774 322.273807,202.899774 L322.192807,202.967774 Z M307.317807,209.669774 C300.114807,208.522774 293.057807,209.633774 286.083807,211.306774 C270.205807,215.114774 254.401807,219.268774 238.423807,221.217774 C240.375807,221.986774 242.680807,221.523774 244.997807,221.360774 C258.623807,220.404774 271.849807,216.681774 285.415807,215.446774 C298.260807,214.276774 311.209807,213.471774 321.215807,225.519774 C320.546807,216.547774 315.442807,210.963774 307.317807,209.669774 L307.317807,209.669774 Z M139.102807,217.373774 C131.952807,215.857774 124.879807,213.982774 117.773807,212.258774 C109.676807,210.294774 101.567807,208.445774 93.1348068,209.576774 C83.7788068,210.831774 78.1038068,217.431774 78.1078047,227.284774 C81.5558068,220.169774 87.6108068,217.339774 94.7668068,215.736774 C105.794807,213.266774 116.504807,216.200774 127.238807,217.476774 C138.430807,218.806774 149.475807,221.371774 160.639807,221.346774 C153.457807,220.037774 146.241807,218.887774 139.102807,217.373774 L139.102807,217.373774 Z M264.808807,176.270774 C248.906807,177.429774 233.019807,178.965774 217.096807,179.620774 C188.681807,180.791774 160.304807,179.656774 132.006807,176.773774 C132.959807,177.049774 133.897807,177.397774 134.866807,177.590774 C162.600807,183.114774 190.663807,183.348774 218.766807,182.631774 C235.565807,182.203774 252.221807,180.334774 268.643807,176.638774 C267.440807,175.710774 266.119807,176.175774 264.808807,176.270774 L264.808807,176.270774 Z M254.631807,189.761774 C241.896807,190.563774 229.179807,191.917774 216.434807,192.228774 C201.369807,192.596774 186.310807,193.103774 171.191807,192.015774 C161.665807,191.330774 152.053807,190.185774 142.429807,190.916774 C143.535807,192.515774 145.386807,192.291774 146.920807,192.542774 C179.830807,197.915774 212.831807,198.167774 245.818807,193.549774 C253.753807,192.439774 261.921807,192.035774 269.483807,188.855774 C264.472807,188.143774 259.581807,189.450774 254.631807,189.761774 L254.631807,189.761774 Z M123.312807,188.720774 C127.909807,192.934774 133.827807,194.308774 139.549807,195.720774 C181.071807,205.959774 222.535807,204.837774 263.862807,194.482774 C267.925807,193.464774 272.050807,192.228774 276.691807,188.855774 L269.483807,188.855774 C261.921807,192.035774 253.753807,192.439774 245.818807,193.549774 C212.831807,198.167774 179.830807,197.915774 146.920807,192.542774 C145.386807,192.291774 143.535807,192.515774 142.429807,190.916774 C139.997807,190.799774 137.565807,190.681774 135.133807,190.563774 C131.192807,189.949774 127.252807,189.335774 123.312807,188.720774 L123.312807,188.720774 Z M218.766807,182.631774 C190.663807,183.348774 162.600807,183.114774 134.866807,177.590774 C133.897807,177.397774 132.959807,177.049774 132.006807,176.773774 C126.711807,176.149774 121.417807,175.525774 114.927807,174.760774 C157.658807,193.625774 264.654807,193.054774 286.433807,174.207774 C280.371807,175.035774 274.507807,175.836774 268.643807,176.638774 C252.221807,180.334774 235.565807,182.203774 218.766807,182.631774 L218.766807,182.631774 Z M342.423807,293.751774 C342.509807,293.675774 342.593807,293.597774 342.678807,293.520774 C342.599807,293.468774 342.519807,293.417774 342.439807,293.366774 C342.405807,293.471774 342.370807,293.576774 342.336807,293.681774 C342.336807,293.681774 342.423807,293.751774 342.423807,293.751774 L342.423807,293.751774 Z M135.448807,335.708774 L135.323807,335.903774 C135.323807,335.903774 135.517807,335.777774 135.517807,335.777774 C135.518807,335.778774 135.448807,335.708774 135.448807,335.708774 L135.448807,335.708774 Z M165.166807,366.208774 C165.169807,365.824774 165.174807,365.440774 165.178807,365.055774 C164.874807,365.214774 164.570807,365.374774 164.266807,365.533774 C164.566807,365.758774 164.866807,365.983774 165.166807,366.208774 L165.166807,366.208774 Z M233.436807,311.788774 C233.350807,311.663774 233.286807,311.508774 233.170807,311.422774 C233.088807,311.361774 232.937807,311.392774 232.817807,311.382774 C233.042807,311.495774 233.266807,311.608774 233.491807,311.722774 C233.491807,311.722774 233.436807,311.788774 233.436807,311.788774 L233.436807,311.788774 Z M271.449807,330.722774 C271.657807,330.888774 271.587807,331.611774 272.148807,331.071774 C271.896807,330.976774 271.643807,330.882774 271.391807,330.787774 C271.391807,330.787774 271.449807,330.722774 271.449807,330.722774 L271.449807,330.722774 Z M131.513807,322.791774 C131.091807,322.966774 130.273807,322.359774 130.293807,323.408774 C130.683807,323.181774 131.073807,322.954774 131.464807,322.728774 C131.464807,322.728774 131.513807,322.791774 131.513807,322.791774 L131.513807,322.791774 Z M268.446807,322.728774 C268.857807,323.024774 269.102807,323.953774 269.815807,323.084774 C269.340807,322.989774 268.865807,322.893774 268.390807,322.798774 C268.390807,322.798774 268.446807,322.728774 268.446807,322.728774 L268.446807,322.728774 Z M58.9818068,227.359774 C61.7778068,237.738774 64.6148068,248.107774 67.4338068,258.480774 C67.7568068,259.668774 68.2208068,260.829774 69.7048068,260.563774 C71.7258068,260.200774 71.1518575,258.692774 70.7908068,257.437774 C67.8248068,247.118774 64.8438068,236.804774 61.8288068,226.499774 C61.5658068,225.600774 61.4348068,224.483774 60.1498068,224.224774 C58.2648068,224.688774 58.6428068,226.101774 58.9818068,227.359774 L58.9818068,227.359774 Z M339.809807,224.314774 C338.500807,224.178774 338.359807,225.463774 338.091807,226.353774 C334.980807,236.664774 331.890807,246.981774 328.838807,257.308774 C328.523807,258.376774 328.060807,259.748774 329.506807,260.343774 C331.186807,261.035774 331.927807,259.831774 332.338807,258.447774 C333.235807,255.428774 334.137807,252.409774 334.942807,249.364774 C336.974807,241.680774 338.954807,233.982774 340.939807,226.351774 C340.880807,225.418774 340.772807,224.414774 339.809807,224.314774 L339.809807,224.314774 Z M286.453807,390.323774 C286.016807,395.778774 285.825807,401.257774 285.677807,406.729774 C285.630807,408.480774 285.500807,410.821774 287.991807,411.027774 C290.728807,411.254774 290.887807,408.845774 291.276807,406.893774 C291.373807,406.405774 291.407807,405.905774 291.485807,405.413774 C294.083807,389.090774 293.979807,372.665774 293.317807,356.222774 C293.251807,354.597774 293.247807,352.904774 291.599807,350.549774 C289.120807,364.305774 287.500807,377.279774 286.453807,390.323774 L286.453807,390.323774 Z M107.004807,352.127774 C104.551807,369.509774 105.868807,386.846774 108.063807,404.133774 C108.355807,406.436774 107.131807,410.993774 111.467807,410.512774 C115.285807,410.088774 113.884807,405.947774 113.890807,403.460774 C113.916807,392.162774 112.321807,380.969774 111.073807,369.764774 C110.405807,363.771774 109.266807,357.831774 108.339807,351.868774 C107.894807,351.954774 107.449807,352.040774 107.004807,352.127774 L107.004807,352.127774 Z M260.634807,322.476774 C260.943807,322.516774 261.252807,322.555774 261.562807,322.593774 C263.858807,322.637774 266.152807,322.682774 268.446807,322.728774 L268.390807,322.798774 C263.287807,319.381774 257.391807,317.672774 251.891807,315.112774 C246.016807,312.378774 240.097807,310.075774 233.436807,311.788774 L233.491807,311.722774 C235.469807,314.071774 237.448807,316.420774 239.426807,318.769774 L239.594807,318.980774 C239.594807,318.980774 239.481807,318.718774 239.481807,318.717774 C238.536807,318.889774 237.590807,319.061774 235.912807,319.366774 C251.190807,330.530774 261.156807,344.986774 267.632807,362.109774 C268.186807,356.070774 266.576807,350.659774 264.205807,345.403774 C261.817807,340.107774 258.381807,335.392774 254.567807,330.122774 C258.091807,330.302774 259.038807,333.408774 262.321807,333.075774 C259.901807,330.310774 257.905807,328.029774 255.212807,324.954774 C261.790807,325.890774 265.898807,330.386774 271.449807,330.722774 L271.391807,330.787774 C268.953807,326.982774 263.634807,326.847774 261.323807,322.881774 C261.093807,322.746774 260.864807,322.611774 260.634807,322.476774 L260.634807,322.476774 Z M135.448807,335.708774 C139.019807,334.550774 141.011807,331.107774 144.323807,329.576774 C145.038807,329.004774 145.753807,328.432774 146.468807,327.861774 C147.125807,329.455774 145.454807,329.449774 144.872807,330.192774 C143.372807,332.388774 141.879807,334.589774 140.364807,336.774774 C133.961807,346.009774 129.413807,360.291774 130.284807,369.261774 C131.070807,366.844774 131.678807,364.962774 132.294807,363.082774 C136.836807,349.220774 144.068807,336.927774 154.774807,327.019774 C159.394807,322.744774 164.429807,319.191774 163.991807,311.749774 C152.056807,311.562774 141.874807,317.449774 131.513807,322.791774 L131.464807,322.728774 C134.005807,322.555774 136.547807,322.382774 139.720807,322.167774 C136.547807,325.196774 132.684807,326.462774 130.744807,330.229774 C135.238807,328.253774 139.732807,326.277774 145.279807,323.837774 C142.108807,329.005774 137.263807,331.132774 135.518807,335.778774 L135.448807,335.708774 Z M59.1118068,291.474774 C58.6218068,295.572774 58.2118068,298.938774 59.9928068,302.404774 C61.4128068,305.169774 62.1698068,310.314774 65.8558068,309.175774 C70.0388068,307.882774 67.7538068,303.104774 67.1918068,299.870774 C65.3498068,289.270774 62.3878068,279.352774 65.0308068,267.789774 C68.1208068,254.272774 61.1158068,241.166774 56.4688068,228.350774 C56.0218068,227.117774 55.3348068,226.460774 53.8558068,227.464774 C49.5828068,230.363774 45.6838068,240.927774 46.9538068,246.585774 C48.2028068,246.130774 48.3428068,244.824774 49.0148068,243.940774 C50.8528068,241.526774 51.9568068,236.570774 54.9408068,237.592774 C57.9498068,238.622774 56.2058068,243.195774 55.6608068,246.204774 C53.7668068,256.666774 54.2838068,267.079774 55.9988068,277.586774 C57.8618068,272.666774 58.3998068,267.432774 60.9108068,262.690774 C60.7928068,272.309774 60.2448068,281.997774 59.1118068,291.474774 L59.1118068,291.474774 Z M342.336807,293.681774 C341.353807,293.273774 339.807807,293.527774 339.908807,291.795774 C340.346807,284.301774 339.797807,276.879774 338.481807,269.493774 C338.336807,268.682774 338.034807,267.268774 339.446807,267.103774 C340.720807,266.953774 340.942807,268.203774 341.191807,269.135774 C342.028807,272.267774 342.812807,275.414774 343.616807,278.555774 C344.854807,268.324774 346.142807,258.252774 344.353807,248.143774 C343.892807,245.534774 343.684807,242.874774 343.496807,240.228774 C343.417807,239.124774 343.224807,237.653774 344.640807,237.240774 C345.975807,236.850774 346.741807,238.051774 347.363807,239.004774 C349.119807,241.692774 350.786807,244.436774 352.488807,247.159774 C353.956807,240.088774 351.136807,234.540774 347.321807,229.245774 C345.201807,226.303774 343.884807,226.100774 342.509807,229.834774 C339.225807,238.751774 336.317807,247.777774 334.567807,257.118774 C333.739807,261.537774 332.805807,266.445774 334.705807,270.450774 C337.806807,276.985774 336.290807,283.006774 334.776807,289.316774 C333.574807,294.328774 332.614807,299.400774 331.641807,304.464774 C331.231807,306.601774 331.825807,308.759774 333.919807,309.467774 C335.813807,310.107774 336.797807,308.122774 337.571807,306.704774 C339.795807,302.624774 341.999807,298.514774 342.423807,293.751774 L342.336807,293.681774 Z M207.637807,261.955774 C206.861807,257.804774 205.037807,255.438774 200.428807,255.388774 C195.772807,255.338774 192.771807,256.711774 192.096807,261.762774 C190.548807,273.358774 189.696807,285.149774 192.117807,296.500774 C195.313807,311.488774 194.569807,325.779774 189.705807,340.167774 C187.115807,347.828774 190.605807,352.374774 198.688807,352.822774 C208.668807,353.374774 212.587807,348.502774 209.512807,338.983774 C205.930807,327.897774 204.100807,316.581774 206.127807,305.080774 C207.634807,296.531774 208.973807,288.045774 208.701807,279.346774 C208.482807,273.546774 208.718807,267.728774 207.637807,261.955774 L207.637807,261.955774 Z M140.154807,303.163774 C140.413807,303.109774 140.673807,303.054774 140.924807,303.000774 C140.662807,303.056774 140.408807,303.110774 140.154807,303.163774 L140.154807,303.163774 Z M290.138807,305.561774 C290.138807,305.561774 290.388807,305.290774 290.396807,305.289774 C290.403807,305.288774 290.096807,305.061774 290.096807,305.061774 L289.797807,305.358774 L290.138807,305.561774 Z M311.716807,279.401774 C310.347807,277.804774 308.918807,276.370774 306.044807,277.377774 C307.845807,279.880774 308.872807,282.438774 311.116807,284.161774 C311.316807,282.574774 311.516807,280.986774 311.716807,279.401774 L311.716807,279.401774 Z M85.4438068,290.886774 C85.9538068,294.895774 85.9348068,299.001774 87.5088068,303.067774 C88.8438068,301.716774 87.8418068,299.595774 89.5368068,298.746774 C88.1718068,296.126774 86.8078068,293.506774 85.4438068,290.886774 L85.4438068,290.886774 Z M289.797807,305.358774 L290.096807,305.061774 C290.096807,305.061774 290.403807,305.288774 290.396807,305.289774 C292.426807,304.647774 294.463807,304.004774 296.500807,303.360774 C291.492807,302.357774 286.455807,301.850774 280.993807,301.788774 C282.966807,304.339774 286.618807,302.234774 287.447807,305.617774 C288.230807,305.530774 289.014807,305.444774 289.797807,305.358774 L289.797807,305.358774 Z M89.4838068,285.842774 C89.4108068,282.245774 92.3598068,280.150774 93.8888068,277.231774 C91.4108068,275.852774 89.8518068,278.199774 87.8698068,278.475774 C87.9748068,281.025774 87.9928068,283.595774 89.4838068,285.842774 L89.4838068,285.842774 Z M309.879807,298.903774 C312.501807,299.052774 310.599807,301.978774 312.443807,302.973774 C313.450807,297.515774 314.422807,292.248774 315.394807,286.981774 C313.555807,290.956774 311.716807,294.931774 309.879807,298.903774 L309.879807,298.903774 Z M111.543807,305.527774 C112.482807,302.556774 116.314807,304.422774 117.914807,301.748774 C112.734807,301.715774 107.983807,302.069774 103.336807,303.419774 C105.944807,304.623774 108.638807,305.487774 111.543807,305.527774 L111.543807,305.527774 Z M296.048807,308.209774 C297.865807,312.887774 297.457807,318.008774 299.083807,323.588774 C300.748807,317.518774 300.078807,312.055774 300.418807,306.686774 C298.961807,307.194774 297.503807,307.702774 296.048807,308.209774 L296.048807,308.209774 Z M300.395807,306.694774 C302.605807,310.114774 302.014807,314.523774 304.567807,318.882774 C305.267807,312.860774 305.857807,307.780774 306.447807,302.700774 C303.832807,303.126774 302.420807,305.374774 300.395807,306.694774 L300.395807,306.694774 Z M310.364807,285.529774 C305.154807,285.533774 299.685807,283.406774 294.334807,287.444774 C299.475807,288.620774 304.720807,287.694774 308.186807,291.949774 C309.309807,289.944774 310.541807,287.975774 310.364807,285.529774 L310.364807,285.529774 Z M91.6288068,292.085774 C95.1998068,287.522774 100.681807,288.590774 106.352807,287.628774 C100.369807,283.988774 94.8868068,284.927774 89.4147764,285.761774 C89.4098068,288.130774 90.0208068,290.283774 91.6288068,292.085774 L91.6288068,292.085774 Z M93.3768068,302.706774 C93.9198068,307.656774 94.4618068,312.605774 95.1468068,318.846774 C97.3078068,315.274774 96.8258068,312.187774 99.1608068,309.350774 C99.4738068,313.965774 99.7238068,317.641774 100.050807,322.458774 C103.021807,317.282774 101.419807,312.268774 103.767807,308.248774 C100.005807,306.959774 96.7598068,304.703774 93.3768068,302.706774 L93.3768068,302.706774 Z M140.154807,303.163774 C140.413807,303.109774 140.673807,303.054774 140.924807,303.000774 C146.940807,302.275774 152.872807,301.198774 158.367807,298.443774 C160.209807,296.731774 163.124807,296.284774 164.596807,293.013774 C157.778807,294.545774 151.646807,296.288774 145.671807,298.567774 C142.204807,299.890774 138.230807,300.235774 135.720807,303.500774 C137.198807,303.388774 138.676807,303.276774 140.154807,303.163774 L140.154807,303.163774 Z M157.364807,411.016774 C159.171807,411.224774 160.978807,411.607774 162.785807,411.613774 C177.581807,411.656774 192.378807,411.688774 207.174807,411.605774 C218.959807,411.538774 230.758807,412.271774 242.526807,411.062774 C214.140807,408.120774 185.753807,408.163774 157.364807,411.016774 L157.364807,411.016774 Z M317.310807,63.2737738 C322.190807,63.0947738 323.144807,61.4277738 322.437807,57.0707738 C320.067807,42.4617738 317.683807,27.8477738 315.787807,13.1727738 C315.041807,7.40077379 311.847807,4.59777379 306.889807,3.12777379 C302.717807,1.89077379 298.375807,1.32277379 294.043807,2.02877379 C283.085807,3.81477379 272.106807,3.10077379 261.156807,2.31177379 C224.741807,-0.313226206 188.331807,-0.851226206 151.871807,1.46877379 C135.955807,2.48077379 120.012807,4.41777379 104.033807,1.91477379 C100.550807,1.36977379 97.0308068,1.98477379 93.6418068,2.86977379 C88.2608068,4.27377379 84.4548068,7.05077379 83.8358068,13.2777738 C82.2998068,28.7307738 78.1118068,43.7967738 76.9888068,59.3397738 C76.7618068,62.4837738 77.6168068,62.9937738 80.2768068,63.1027738 C120.029807,64.7297738 159.781807,66.4147738 199.847807,68.0997738 C238.799807,66.4617738 278.049807,64.7197738 317.310807,63.2737738 L317.310807,63.2737738 Z M70.5008068,67.6907738 C67.1358068,67.4337738 65.8348068,68.7017738 65.2578068,71.9737738 C63.5268068,81.7957738 63.0628068,91.8067738 60.4928068,101.511774 C58.3228068,109.706774 56.5978068,118.021774 54.7758068,126.305774 C54.2748068,128.584774 53.7148068,130.821774 57.5508068,131.143774 C65.1648068,131.782774 72.7318068,132.963774 80.3318068,133.796774 C106.793807,136.696774 133.163807,140.463774 159.723807,142.419774 C176.643807,143.666774 193.526807,145.766774 210.562807,144.716774 C252.948807,142.103774 295.027807,136.573774 337.160807,131.548774 C345.935807,130.501774 345.975807,130.440774 344.021807,121.648774 C340.668807,106.564774 336.720807,91.6457738 334.970807,76.1857738 C333.886807,66.6187738 335.833807,67.3127738 323.494807,68.0027738 C288.752807,69.9477738 254.007807,71.8157738 219.219807,72.7457738 C177.053807,73.8727738 135.012807,70.8977738 96.6278068,69.1677738 C85.4568068,68.5577738 77.9688068,68.2617738 70.5008068,67.6907738 L70.5008068,67.6907738 Z M172.298807,403.491774 C174.392807,403.492774 176.373807,404.606774 177.411807,402.621774 C177.880807,401.724774 176.632807,400.170774 175.664807,399.993774 C173.249807,399.549774 173.274807,401.773774 172.298807,403.491774 L172.298807,403.491774 Z M211.404807,402.194774 C213.510807,402.753774 215.237807,402.988774 217.020807,402.372774 C217.078807,400.686774 216.162807,399.072774 214.955807,398.826774 C213.199807,398.466774 212.302807,400.224774 211.404807,402.194774 L211.404807,402.194774 Z M227.335807,403.161774 C225.957807,402.235774 226.792807,399.123774 223.958807,399.997774 C223.007807,400.291774 221.724807,401.795774 222.328807,402.737774 C223.469807,404.518774 225.438807,403.576774 227.335807,403.161774 L227.335807,403.161774 Z M188.678807,402.203774 C187.424807,400.436774 186.619807,398.485774 185.010807,398.663774 C183.498807,398.830774 182.620807,400.633774 182.545807,402.475774 C184.382807,402.941774 186.128807,402.728774 188.678807,402.203774 L188.678807,402.203774 Z M208.046807,401.802774 C207.391807,399.815774 206.545807,397.917774 205.054807,397.789774 C203.258807,397.635774 202.767807,399.711774 202.237807,401.327774 C204.011807,402.083774 205.765807,402.101774 208.046807,401.802774 L208.046807,401.802774 Z M191.419807,402.030774 C193.855807,401.911774 195.737807,402.201774 197.521807,401.250774 C194.717807,396.363774 194.717807,396.363774 191.419807,402.030774 L191.419807,402.030774 Z M81.1458068,243.438774 C81.8718068,235.673774 94.9018068,224.140774 101.957807,225.015774 C102.120807,225.035774 102.393807,224.960774 102.437807,225.034774 C104.778807,229.006774 107.806807,225.952774 110.503807,225.759774 C112.481807,225.618774 114.416807,224.942774 116.394807,224.726774 C117.302807,224.628774 119.110807,223.736774 118.895807,225.822774 C118.586807,228.823774 120.699807,227.598774 121.811807,227.546774 C124.128807,227.438774 126.423807,226.918774 128.740807,226.703774 C129.342807,226.647774 131.049807,226.473774 130.324807,227.587774 C128.131807,230.959774 131.036807,229.365774 131.869807,229.207774 C134.196807,228.765774 136.427807,228.566774 138.753807,229.339774 C142.172807,230.474774 145.785807,230.225774 149.407807,231.255774 C157.094807,233.442774 165.535807,233.147774 173.683807,233.495774 C183.036807,233.895774 185.157807,232.071774 187.041807,222.831774 C189.140807,228.055774 189.195807,233.153774 188.386807,238.262774 C188.011807,240.625774 186.671807,242.543774 184.302807,243.590774 C183.230807,244.063774 180.607807,243.521774 182.116807,246.119774 C183.023807,247.679774 183.261807,250.309774 186.167807,249.522774 C195.385807,247.026774 204.582807,247.104774 213.804807,249.546774 C216.414807,250.237774 216.532807,247.662774 217.498807,246.306774 C218.066807,245.509774 218.350807,244.797774 217.060807,243.936774 C210.228807,239.377774 208.883807,233.997774 212.647807,225.529774 C214.198807,230.678774 217.418807,233.454774 222.424807,233.481774 C232.221807,233.536774 241.934807,232.392774 252.796807,231.467774 C248.305807,229.722774 244.779807,229.585774 240.060807,228.780774 C242.427807,230.233774 243.348807,228.993774 244.437807,229.007774 C252.203807,229.109774 259.970807,229.143774 267.736807,229.209774 C268.389807,229.215774 269.208807,229.579774 269.665807,229.303774 C272.728807,227.453774 272.707807,227.378774 275.631807,227.729774 C277.040807,227.898774 279.006807,227.679774 279.242807,226.709774 C280.085807,223.242774 282.379807,224.874774 284.267807,224.822774 C288.795807,224.697774 292.606807,227.276774 298.000807,225.475774 C305.278807,223.043774 317.266807,235.065774 317.750807,243.693774 C311.122807,234.620774 301.900807,234.495774 292.311807,235.368774 C301.612807,237.287774 308.762807,242.068774 314.117807,249.989774 C316.125807,252.959774 320.700807,252.572774 322.585807,250.497774 C325.970807,246.769774 330.376807,242.194774 330.027807,237.329774 C329.414807,228.781774 331.280807,220.475774 330.778807,211.997774 C329.607807,192.223774 327.008807,172.516774 327.504807,152.666774 C327.609807,148.474774 326.214807,147.444774 322.401807,147.988774 C309.388807,149.846774 296.364807,151.634774 283.331807,153.354774 C256.420807,156.904774 229.492807,160.492774 202.295807,160.692774 C170.898807,160.923774 139.879807,156.481774 108.859807,152.320774 C97.9788068,150.860774 87.1818068,148.778774 76.2148068,147.949774 C73.8768068,147.772774 72.0318068,147.660774 72.1828068,151.103774 C73.3298068,177.226774 67.6448068,203.084774 69.4168068,229.338774 C69.9458068,237.181774 71.6878068,243.415774 76.2118068,249.337774 C78.2538068,252.009774 83.8228068,252.753774 85.5678068,250.043774 C90.9598068,241.661774 98.6748068,237.124774 109.508807,235.363774 C96.6708068,233.840774 94.0308068,234.644774 81.1458068,243.438774 L81.1458068,243.438774 Z M146.168807,420.490774 C146.304807,420.592774 146.440807,420.695774 146.575807,420.798774 C146.364807,422.599774 146.204807,424.408774 145.931807,426.200774 C145.567807,428.584774 144.237807,431.448774 148.848807,430.638774 C150.941807,430.271774 151.227807,431.983774 151.451807,433.507774 C151.758807,435.598774 151.612807,437.796774 153.104807,439.959774 C156.026807,436.770774 158.856807,433.683774 162.745807,429.440774 L162.745807,443.174774 C164.706807,443.903774 164.792807,440.894774 166.389807,442.314774 C170.227807,445.727774 171.405807,445.532774 173.209807,440.541774 C175.750807,433.510774 175.889807,425.981774 177.459807,418.743774 C177.548807,418.334774 177.833807,417.967774 177.973807,417.688774 C179.614807,417.733774 179.054807,420.376774 180.995807,419.783774 C181.655807,418.000774 182.310807,416.229774 182.980807,414.421774 C185.286807,415.521774 184.132807,418.419774 186.445807,419.376774 C187.191807,417.671774 187.898807,416.055774 188.645807,414.347774 C190.584807,415.893774 189.668807,418.722774 191.925807,419.940774 C192.678807,418.069774 193.383807,416.319774 194.050807,414.665774 C196.078807,415.125774 195.622807,417.500774 197.005807,417.716774 C198.700807,417.340774 199.526807,414.598774 199.988807,415.375774 C202.668807,419.881774 203.862807,415.930774 205.421807,414.076774 C206.380807,416.423774 207.108807,418.205774 207.908807,420.161774 C209.900807,418.574774 209.063807,415.780774 210.963807,414.509774 C212.541807,415.858774 211.767807,418.452774 213.697807,419.593774 C215.209807,418.194774 214.547807,415.739774 216.295807,414.522774 C218.259807,415.963774 217.308807,418.748774 219.170807,420.074774 C219.942807,419.368774 220.671807,418.175774 221.334807,418.211774 C222.509807,418.276774 222.337807,419.678774 222.473807,420.624774 C222.851807,423.256774 223.127807,425.905774 223.596807,428.520774 C224.446807,433.262774 225.106807,438.095774 227.336807,442.431774 C228.416807,444.533774 231.054807,447.091774 232.443807,443.969774 C234.148807,440.138774 235.635807,444.041774 236.874807,443.490774 C237.683807,439.270774 236.509807,435.102774 238.053807,430.969774 C241.615807,433.483774 243.197807,437.491774 247.129807,439.793774 C247.580807,437.336774 248.060807,435.286774 248.306807,433.208774 C248.512807,431.467774 249.047807,430.238774 251.053807,430.652774 C254.458807,431.354774 254.677807,429.738774 253.912807,427.073774 C253.433807,425.406774 253.255807,423.654774 252.706807,420.651774 C257.013807,425.446774 259.022807,421.579774 258.837807,419.539774 C258.110807,411.505774 255.312807,404.045774 249.653807,396.899774 C249.414807,400.971774 249.223807,404.225774 248.963807,408.665774 C246.177807,404.581774 244.149807,401.607774 242.148807,398.672774 C240.036807,399.822774 240.976807,402.697774 238.650807,403.571774 C237.401807,401.636774 236.169807,399.727774 234.901807,397.763774 C229.733807,403.531774 229.801807,403.757774 236.514807,405.896774 C238.563807,406.548774 240.700807,407.107774 242.356807,408.601774 C243.135807,409.303774 244.599807,410.102774 242.526807,411.062774 C214.140807,408.120774 185.753807,408.163774 157.364807,411.016774 C155.359807,410.471774 156.073807,409.611774 157.102807,408.723774 C159.462807,406.686774 162.413807,405.986774 165.320807,405.381774 C168.574807,404.704774 169.102807,403.212774 167.234807,400.646774 C166.501807,399.640774 166.448807,398.068774 164.907807,397.722774 C162.884807,399.180774 162.888807,402.207774 160.654807,403.443774 C158.824807,402.248774 159.553807,399.782774 157.511807,398.684774 C155.438807,401.688774 153.354807,404.709774 151.269807,407.730774 C150.936807,407.594774 150.603807,407.458774 150.269807,407.322774 L150.269807,395.872774 C144.493807,405.492774 139.061807,413.706774 142.509807,424.440774 C143.744807,423.107774 144.956807,421.798774 146.168807,420.490774 L146.168807,420.490774 Z M89.4838068,285.842774 L89.4148068,285.761774 C89.4098068,288.130774 90.0208068,290.283774 91.6298068,292.087774 C94.1968068,297.245774 97.8398068,301.289774 103.336807,303.419774 C105.944807,304.623774 108.638807,305.487774 111.545807,305.527774 C119.716807,306.199774 127.699807,304.624774 135.720807,303.500774 C137.198807,303.388774 138.676807,303.276774 140.154807,303.163774 C140.408807,303.110774 140.662807,303.056774 140.916807,303.002774 C146.940807,302.275774 152.872807,301.198774 158.366807,298.443774 C159.907807,299.423774 158.765807,300.073774 158.008807,300.563774 C155.543807,302.158774 153.019807,303.663774 150.236807,305.377774 C158.435807,306.350774 172.774807,296.999774 176.408807,289.108774 C177.070807,287.669774 176.454807,286.613774 176.113807,285.334774 C174.699807,280.035774 174.914807,275.038774 179.892807,271.537774 C181.230807,270.596774 181.483807,269.500774 181.466807,268.163774 C181.418807,264.335774 181.676807,260.457774 181.148807,256.692774 C179.488807,244.851774 168.710807,238.036774 157.484807,241.702774 C164.464807,245.078774 170.480807,249.583774 176.302807,254.647774 C157.693807,254.502774 141.064807,245.529774 122.954807,243.486774 C130.307807,241.634774 137.667807,242.144774 145.428807,242.731774 C144.327807,240.331774 142.720807,240.260774 141.359807,239.938774 C129.441807,237.119774 117.486807,237.846774 105.732807,240.525774 C93.1488068,243.393774 86.3008068,252.701774 86.6348068,265.566774 C86.7468068,269.877774 87.4418068,274.172774 87.8698068,278.475774 C87.9748068,281.025774 87.9928068,283.595774 89.4838068,285.842774 L89.4838068,285.842774 Z M300.418807,306.686774 C298.961807,307.194774 297.503807,307.702774 296.045807,308.211774 C285.245807,311.522774 274.075807,312.082774 262.776807,312.930774 C266.554807,314.599774 270.331807,316.269774 274.109807,317.938774 C256.112807,310.919774 234.870807,311.246774 220.680807,293.800774 C221.830807,304.002774 223.576807,313.065774 223.540807,323.420774 C218.944807,311.875774 212.767807,268.954774 214.065807,258.054774 C214.428807,255.007774 213.811807,253.380774 210.617807,252.770774 C203.156807,251.347774 195.742807,251.296774 188.330807,252.970774 C186.554807,253.372774 185.298807,254.211774 185.535807,256.381774 C187.373807,273.229774 182.891807,289.450774 180.472807,305.864774 C179.707807,311.053774 178.980807,316.347774 176.646807,321.201774 C176.138807,312.311774 178.015807,303.632774 178.902807,293.470774 C166.656807,309.723774 148.534807,310.143774 132.816807,315.918774 C133.543807,313.708774 136.260807,314.289774 137.295807,311.950774 C125.677807,312.135774 114.570807,311.482774 103.767807,308.248774 C100.005807,306.959774 96.7598068,304.703774 93.3758068,302.705774 C92.3888068,301.102774 91.2118068,299.682774 89.5368068,298.746774 C88.1718068,296.126774 86.8078068,293.506774 85.4438068,290.886774 C84.7088068,286.470774 83.9418068,282.059774 83.2528068,277.635774 C82.9728068,275.837774 82.4528068,275.050774 80.3298068,275.678774 C77.6558068,276.469774 75.1728068,275.803774 73.0898068,273.144774 C76.3638068,272.164774 80.2768068,273.814774 82.2698068,269.597774 C79.7488068,268.429774 75.8488068,270.242774 74.9128068,266.087774 C75.8058068,266.087774 76.4498068,266.075774 77.0948068,266.089774 C80.2668068,266.160774 82.3938068,265.558774 82.4578068,261.465774 C82.5228068,257.280774 79.9878068,257.973774 77.5628068,257.927774 C75.8908068,257.895774 74.1728068,258.032774 73.4218068,255.984774 C71.4808068,250.687774 68.4908068,245.773774 67.6308068,240.083774 C66.6278068,233.443774 64.2538068,227.223774 61.6658068,221.089774 C60.1868068,217.582774 56.6088068,216.570774 54.1708068,219.299774 C48.7428068,225.372774 44.4818068,232.253774 43.3898068,240.522774 C42.4848068,247.377774 45.6968068,253.522774 47.5048068,259.882774 C52.4268068,277.202774 52.1218068,295.905774 61.3408068,312.101774 C62.0508068,313.348774 62.1468068,314.976774 62.3908068,316.449774 C62.7948068,318.894774 62.3128068,321.445774 63.4148068,323.820774 C64.1578068,325.423774 65.0788068,326.743774 66.9448068,326.977774 C68.9878068,327.233774 70.4668068,326.265774 71.5278068,324.584774 C73.4668068,321.511774 73.9078068,318.010774 74.0978068,314.525774 C74.3018068,310.784774 74.1438068,307.023774 74.1438068,303.271774 C74.6078068,303.289774 75.0728068,303.308774 75.5378068,303.326774 C75.5378068,304.470774 75.5098068,305.615774 75.5418068,306.759774 C76.2008068,330.394774 77.2698068,353.997774 79.4458068,377.560774 C80.6808068,390.931774 87.3348068,400.943774 96.7408068,409.679774 C97.5518068,410.431774 98.4348068,411.655774 99.6748068,411.075774 C100.963807,410.471774 100.349807,408.990774 100.363807,407.912774 C100.432807,402.783774 100.394807,397.653774 100.394807,392.523774 C102.983807,398.943774 104.834807,405.323774 106.121807,411.815774 C106.912807,415.802774 108.929807,418.127774 112.409807,420.080774 C116.285807,422.256774 117.588807,421.685774 117.703807,417.238774 C118.207807,397.910774 117.265807,378.636774 115.824807,359.375774 C115.617807,356.616774 115.528807,353.847774 115.384807,351.083774 C116.810807,352.618774 117.280807,354.187774 117.638807,355.781774 C121.621807,373.541774 122.504807,391.699774 124.604807,409.703774 C125.372807,416.285774 126.232807,422.935774 130.988807,428.260774 C130.488807,424.471774 132.878807,421.922774 134.080807,418.853774 C138.072807,408.669774 138.424807,397.727774 138.954807,386.925774 C139.108807,383.796774 141.063807,381.838774 142.226807,379.343774 C143.245807,377.156774 145.358807,380.059774 146.617807,377.717774 C149.747807,371.900774 155.433807,368.316774 160.291807,363.144774 C160.558807,366.660774 161.480807,368.382774 164.266807,365.533774 C164.566807,365.758774 164.866807,365.983774 165.167807,366.208774 C166.862807,368.923774 167.270807,365.627774 168.372807,365.464774 C169.305807,365.326774 169.762807,363.367774 171.135807,364.499774 C172.816807,365.886774 172.763807,365.940774 174.154807,364.847774 C175.963807,363.427774 177.589807,360.823774 180.004807,364.509774 C181.294807,357.603774 181.057807,357.148774 174.977807,355.873774 C172.709807,355.398774 170.322807,354.875774 168.063807,355.105774 C162.808807,355.639774 160.430807,352.955774 159.310807,348.340774 C158.979807,346.977774 159.119807,345.392774 157.564807,344.130774 C149.468807,354.731774 142.536807,366.029774 134.839807,376.810774 C139.668807,358.864774 145.286807,341.407774 160.942807,329.520774 C160.554807,334.508774 159.559807,339.230774 160.490807,344.066774 C161.211807,347.810774 162.425807,350.241774 167.160807,348.792774 C173.509807,346.850774 178.870807,349.184774 183.478807,353.719774 C192.349807,362.450774 207.363807,362.382774 216.267807,353.627774 C220.573807,349.392774 225.552807,347.309774 231.677807,348.549774 C237.391807,349.705774 238.817807,348.461774 239.437807,342.457774 C239.884807,338.124774 238.713807,333.925774 238.416807,329.587774 C247.832807,331.373774 264.560807,364.456774 263.962807,376.263774 C256.357807,365.131774 249.929807,354.153774 242.043807,344.095774 C240.582807,345.332774 240.751807,346.757774 240.461807,348.018774 C239.364807,352.788774 237.005807,355.707774 231.457807,355.090774 C228.154807,354.723774 224.887807,355.727774 221.677807,356.720774 C218.894807,357.580774 217.765807,360.007774 219.623807,361.404774 C222.229807,363.363774 225.493807,364.598774 228.174807,366.665774 C228.193807,366.679774 228.686807,366.287774 228.689807,366.081774 C228.759807,361.334774 230.539807,365.496774 231.339807,365.671774 C232.238807,365.868774 233.011807,366.637774 233.839807,367.157774 C235.298807,362.675774 236.667807,367.856774 238.295807,367.105774 C238.745807,366.082774 239.261807,364.906774 239.609807,364.114774 C246.734807,367.335774 248.744807,376.132774 256.709807,378.749774 C258.532807,379.347774 260.787807,382.647774 260.713807,386.185774 C260.611807,391.157774 261.319807,396.146774 261.660807,401.128774 C262.097807,407.492774 262.901807,414.248774 266.060807,419.374774 C267.883807,422.333774 268.105807,424.786774 268.611807,427.638774 C268.647807,427.838774 269.033807,427.976774 270.243807,428.882774 C279.315807,403.098774 275.373807,375.389774 284.073807,350.062774 C284.389807,351.384774 284.514807,352.686774 284.370807,353.957774 C282.521807,370.364774 282.391807,386.862774 281.731807,403.331774 C281.518807,408.642774 281.219807,413.973774 282.176807,419.277774 C282.574807,421.486774 283.301807,422.077774 285.462807,421.000774 C289.607807,418.934774 292.906807,416.683774 293.722807,411.376774 C294.696807,405.047774 296.783807,398.889774 298.388807,392.657774 C298.776807,392.726774 299.163807,392.796774 299.551807,392.866774 L299.551807,411.303774 C307.981807,407.467774 317.833807,393.211774 319.338807,382.978774 C321.983807,364.990774 322.618807,346.850774 323.386807,328.720774 C323.693807,321.480774 324.085807,314.242774 324.438807,307.004774 C325.611807,309.685774 325.528807,312.329774 325.632807,314.964774 C325.757807,318.144774 326.288807,321.270774 327.870807,324.093774 C328.905807,325.939774 330.397807,327.263774 332.689807,326.990774 C334.787807,326.740774 335.785807,325.167774 336.391807,323.361774 C336.758807,322.269774 337.110807,321.106774 337.118807,319.972774 C337.163807,314.151774 339.111807,308.920774 341.725807,303.829774 C345.041807,297.372774 346.888807,290.644774 347.622807,283.255774 C348.663807,272.768774 350.080807,262.113774 354.131807,252.263774 C356.697807,246.026774 357.360807,240.057774 354.702807,234.006774 C352.906807,229.918774 350.424807,226.114774 348.057807,222.302774 C346.565807,219.900774 344.901807,217.603774 341.376807,218.022774 C337.993807,218.425774 337.996807,221.331774 337.027807,223.454774 C332.592807,233.170774 331.954807,244.104774 327.281807,253.792774 C325.864807,256.728774 324.454807,258.494774 321.018807,257.941774 C318.346807,257.512774 317.458807,258.431774 317.336807,261.443774 C317.077807,267.845774 322.003807,265.354774 324.942807,266.279774 C324.574807,268.205774 323.148807,268.536774 321.709807,268.987774 C320.403807,269.396774 318.683807,268.252774 317.643807,270.089774 C319.530807,273.863774 323.461807,272.116774 326.712807,273.161774 C325.496807,274.701774 324.120807,276.022774 322.822807,275.695774 C315.361807,273.815774 316.446807,279.475774 315.691807,283.507774 C315.478807,284.644774 315.487807,285.822774 315.394807,286.981774 C313.555807,290.956774 311.716807,294.931774 309.877807,298.906774 C308.457807,299.921774 307.194807,301.077774 306.447807,302.700774 C303.832807,303.126774 302.420807,305.374774 300.395807,306.694774 C300.395807,306.694774 300.418807,306.686774 300.418807,306.686774 L300.418807,306.686774 Z M289.797807,305.358774 L290.138807,305.561774 L290.388807,305.290774 C292.426807,304.647774 294.463807,304.004774 296.500807,303.360774 C302.134807,301.337774 305.311807,296.798774 308.186807,291.949774 C309.309807,289.944774 310.541807,287.975774 310.364807,285.529774 C310.614807,285.073774 310.865807,284.617774 311.116807,284.161774 C311.316807,282.574774 311.516807,280.986774 311.716807,279.399774 C312.196807,274.613774 312.956807,269.835774 313.102807,265.039774 C313.463807,253.197774 306.381807,243.777774 294.907807,240.739774 C284.312807,237.934774 273.488807,237.812774 262.681807,238.945774 C259.483807,239.281774 256.009807,239.816774 252.610807,242.863774 C261.311807,242.321774 269.080807,241.414774 276.764807,243.501774 C262.024807,245.666774 248.100807,250.887774 233.707807,254.224774 C230.241807,255.028774 226.758807,255.555774 222.788807,254.389774 C229.799807,248.622774 236.788807,244.044774 244.385807,240.207774 C239.240807,240.641774 234.051807,240.908774 229.261807,242.433774 C220.600807,245.189774 214.331807,261.968774 218.485807,270.152774 C218.760807,270.695774 219.338807,271.119774 219.848807,271.501774 C224.512807,274.997774 225.297807,279.783774 223.588807,284.847774 C222.631807,287.681774 223.388807,289.574774 224.892807,291.675774 C231.038807,300.266774 240.407807,305.224774 254.587807,307.052774 C249.771807,304.952774 245.247807,303.615774 240.972807,299.830774 C242.559807,299.830774 243.236807,299.660774 243.783807,299.855774 C253.635807,303.361774 263.940807,304.024774 274.233807,304.754774 C278.636807,305.067774 282.967807,306.496774 287.447807,305.617774 C288.230807,305.530774 289.014807,305.444774 289.797807,305.358774 L289.797807,305.358774 Z M333.354807,212.610774 C348.482807,210.220774 350.573807,211.575774 358.383807,224.792774 C364.159807,234.567774 365.114807,244.406774 361.339807,254.937774 C357.441807,265.811774 355.166807,277.035774 354.313807,288.550774 C354.013807,292.600774 352.676807,296.357774 351.060807,300.028774 C347.850807,307.319774 344.539807,314.424774 343.844807,322.685774 C343.218807,330.117774 337.678807,334.347774 330.629807,335.858774 C326.819807,336.674774 326.155807,338.528774 326.059807,342.015774 C325.594807,358.987774 325.420807,375.990774 322.567807,392.805774 C321.380807,399.798774 318.301807,405.390774 312.654807,410.063774 C300.728807,419.934774 289.703807,430.862774 277.452807,440.386774 C273.862807,443.177774 275.081807,447.664774 274.788807,451.547774 C274.653807,453.336774 276.445807,455.439774 272.934807,456.656774 C271.103807,457.291774 272.676807,460.581774 272.884807,462.652774 C273.031807,464.119774 274.242807,465.458774 271.086807,464.875774 C268.211807,464.345774 269.307807,467.408774 269.407807,468.839774 C269.742807,473.600774 265.905807,474.614774 262.989807,476.498774 C262.877807,476.570774 262.520807,476.464774 262.518807,476.476774 C261.844807,481.159774 257.388807,481.485774 254.760807,483.835774 C252.813807,485.576774 252.202807,485.721774 250.337807,484.923774 C242.606807,481.615774 242.602807,481.627774 240.641807,489.640774 C240.525807,490.115774 240.361807,490.579774 240.072807,491.538774 C238.920807,489.783774 237.972807,488.338774 237.011807,486.874774 C234.518807,487.733774 234.910807,490.727774 232.805807,491.859774 C226.665807,483.891774 228.284807,494.375774 225.516807,494.925774 C223.707807,494.210774 223.946807,491.752774 222.184807,490.728774 C219.948807,491.236774 220.289807,493.970774 218.604807,495.145774 C216.276807,494.527774 216.974807,491.231774 214.630807,490.552774 C212.590807,491.953774 212.785807,494.728774 211.108807,496.493774 C209.128807,495.848774 209.435807,492.404774 207.346807,492.608774 C205.226807,492.815774 205.539807,495.917774 203.650807,497.218774 C201.099807,496.523774 201.739807,492.988774 199.435807,491.847774 C197.724807,492.988774 198.265807,495.651774 196.268807,496.581774 C194.290807,495.635774 194.580807,492.999774 192.733807,491.946774 C190.719807,492.743774 191.110807,495.611774 188.881807,496.384774 C187.828807,494.425774 186.773807,492.462774 185.683807,490.434774 C183.365807,491.591774 183.424807,494.033774 181.943807,495.327774 C177.759807,490.343774 177.759807,490.343774 174.816807,494.910774 C171.665807,495.366774 173.422807,483.106774 167.212807,491.954774 C165.133807,490.687774 165.168807,487.940774 163.095807,486.905774 C161.408807,487.718774 161.337807,489.703774 160.092807,490.844774 C158.764807,490.605774 158.948807,489.370774 158.746807,488.543774 C156.996807,481.389774 157.041807,481.430774 150.100807,484.521774 C148.197807,485.369774 145.417807,488.168774 145.243807,482.980774 C145.208807,481.933774 144.119807,481.683774 143.338807,482.003774 C138.875807,483.837774 138.282807,481.338774 138.434807,477.805774 C138.468807,477.021774 138.207807,475.775774 137.110807,476.336774 C134.001807,477.927774 134.343807,474.305774 133.634807,474.074774 C128.700807,472.468774 130.981807,468.521774 130.290807,465.600774 C130.252807,465.439774 130.211807,465.140774 130.162807,465.138774 C123.377807,464.891774 128.399807,460.353774 127.565807,457.953774 C127.464807,457.662774 127.697807,457.049774 127.584807,456.996774 C121.264807,454.050774 126.352807,448.320774 124.539807,444.173774 C123.694807,442.242774 122.859807,440.717774 121.229807,439.488774 C108.036807,429.542774 96.3688068,417.831774 83.8268068,407.129774 C78.3558068,402.460774 77.3528068,395.632774 76.4708068,389.037774 C74.3698068,373.334774 73.8868068,357.506774 73.5688068,341.689774 C73.5008068,338.323774 72.7548068,336.789774 69.2748068,335.913774 C59.9118068,333.558774 56.0508068,328.589774 55.3918068,318.936774 C55.1138068,314.848774 53.6628068,311.122774 51.9418068,307.529774 C48.1028068,299.513774 45.3658068,291.322774 44.6498068,282.313774 C43.8708068,272.517774 41.3338068,262.982774 37.9848068,253.705774 C32.2708068,237.871774 39.2368068,225.537774 49.1378068,214.148774 C52.7318068,210.014774 57.7418068,210.925774 62.2538068,211.952774 C65.6778068,212.731774 66.3968068,211.640774 66.2508068,208.635774 C65.6438068,196.156774 64.9868068,183.678774 64.5888068,171.192774 C64.4718068,167.509774 62.3598068,167.805774 59.9338068,167.967774 C47.9158068,168.771774 35.9618068,168.372774 24.1528068,165.807774 C18.5988068,164.601774 13.2318068,162.838774 8.39280679,159.737774 C5.97880679,158.190774 3.87380679,156.328774 2.34380679,153.879774 C-1.79119321,147.254774 -0.482193208,142.278774 6.48780679,138.784774 C14.6158068,134.710774 23.5158068,134.241774 32.3208068,134.025774 C51.8538068,133.547774 71.2208068,135.907774 90.5698068,138.198774 C122.305807,141.955774 153.940807,146.685774 185.897807,148.311774 C216.325807,149.859774 246.403807,145.825774 276.494807,142.241774 C302.938807,139.091774 329.304807,135.209774 355.951807,134.030774 C365.300807,133.616774 374.610807,133.952774 383.807807,135.755774 C386.562807,136.295774 389.313807,137.126774 391.896807,138.224774 C400.875807,142.042774 402.238807,149.721774 395.162807,156.625774 C389.575807,162.076774 382.416807,164.333774 375.021807,165.896774 C363.539807,168.325774 351.911807,169.050774 340.239807,167.932774 C336.269807,167.552774 335.047807,168.768774 334.941807,172.671774 C334.581807,185.957774 333.910807,199.234774 333.354807,212.610774 L333.354807,212.610774 Z" id="Fill-1" fill="#262322" mask="url(#mask-2)"></path>
        </g>
    </g>
</svg>